<?xml version="1.0" encoding="utf-8"?>
<!-- Generator: Adobe Illustrator 25.2.0, SVG Export Plug-In . SVG Version: 6.00 Build 0)  -->
<svg version="1.1" id="Layer_1" xmlns="http://www.w3.org/2000/svg" xmlns:xlink="http://www.w3.org/1999/xlink" x="0px" y="0px"
	 width="378.4px" height="95.5px" viewBox="0 0 378.4 95.5" style="enable-background:new 0 0 378.4 95.5;" xml:space="preserve">
<style type="text/css">
	.st0{fill:#1D1D1B;}
	.st1{fill:url(#SVGID_1_);}
</style>
<path class="st0" d="M152.8,27.3H148v8.1h-8.7V4.6h14.1c2.5,0,5,0.4,7.3,1.4c1.9,0.8,3.6,2.2,4.7,4c1.1,1.8,1.7,3.9,1.7,6
	c0.1,2.1-0.5,4.1-1.6,5.9c-1.1,1.7-2.7,3-4.5,3.9l6.7,9.6h-9.3L152.8,27.3z M156.9,12.7c-1.1-0.9-2.6-1.3-4-1.2H148v9h4.9
	c1.4,0.1,2.9-0.3,4-1.2c1-0.8,1.5-2,1.4-3.3C158.3,14.7,157.8,13.5,156.9,12.7z"/>
<path class="st0" d="M194.1,25.6h-17.4c0.3,1.2,1.1,2.2,2.1,2.9c1.2,0.7,2.5,1,3.8,1c1,0,2-0.2,3-0.5c0.9-0.4,1.7-1,2.5-1.6l4.4,4.6
	c-2.3,2.5-5.7,3.8-10.2,3.8c-2.5,0.1-5-0.5-7.3-1.5c-2-1-3.7-2.5-4.9-4.4c-1.2-1.9-1.8-4.1-1.8-6.4c0-2.2,0.6-4.5,1.7-6.4
	c1.1-1.8,2.8-3.3,4.7-4.3c2.1-1.1,4.4-1.7,6.7-1.6c2.3,0,4.5,0.5,6.5,1.5c1.9,0.9,3.5,2.4,4.6,4.2c1.2,2,1.8,4.3,1.7,6.7
	C194.2,23.6,194.2,24.3,194.1,25.6z M178.2,18.2c-0.8,0.8-1.4,1.9-1.6,3h9.8c-0.2-1.2-0.8-2.2-1.7-3c-0.9-0.7-2-1.1-3.2-1.1
	C180.3,17.1,179.1,17.5,178.2,18.2L178.2,18.2z"/>
<path class="st0" d="M222.1,11.6l-9.8,23.8h-8.7l-9.8-23.8h8.6l5.7,14.6l6.1-14.6L222.1,11.6z"/>
<path class="st0" d="M228.1,34.3c-1.9-1.1-3.6-2.6-4.8-4.4c-1.2-1.9-1.8-4.1-1.7-6.4c-0.1-2.3,0.5-4.5,1.7-6.4
	c1.2-1.9,2.8-3.4,4.8-4.4c2.2-1,4.5-1.5,6.9-1.5c2.4,0,4.8,0.5,7,1.5c2,1,3.7,2.5,4.8,4.4c1.2,1.9,1.8,4.1,1.7,6.4
	c0.1,2.3-0.5,4.5-1.7,6.4c-1.2,1.9-2.8,3.4-4.8,4.4c-2.2,1-4.6,1.5-7,1.5C232.6,35.8,230.3,35.3,228.1,34.3z M238.7,27.7
	c1-1.2,1.5-2.7,1.4-4.2c0.1-1.5-0.4-3-1.4-4.2c-1-1-2.3-1.5-3.7-1.5c-1.4,0-2.7,0.5-3.6,1.5c-1,1.2-1.5,2.7-1.4,4.2
	c-0.1,1.5,0.4,3,1.4,4.2c0.9,1,2.2,1.5,3.6,1.5C236.4,29.2,237.7,28.7,238.7,27.7z"/>
<path class="st0" d="M253.5,33.6c-1.7-1.7-2.6-4.1-2.4-6.5V2.8h8.4v23.8c-0.1,0.8,0.2,1.5,0.7,2.1c0.5,0.5,1.2,0.7,1.9,0.7
	c0.7,0,1.3-0.2,1.9-0.5l0.3,6.3c-1.3,0.4-2.6,0.6-3.9,0.6C257.9,36,255.4,35.2,253.5,33.6z"/>
<path class="st0" d="M291.1,11.6v23.8h-8v-2.5c-0.8,1-1.9,1.7-3.1,2.2c-1.2,0.5-2.6,0.7-3.9,0.7c-2.7,0.1-5.4-0.8-7.4-2.7
	c-1.9-1.8-2.8-4.5-2.8-8.2V11.6h8.4v12c-0.1,1.4,0.2,2.8,1,3.9c0.8,0.8,1.9,1.3,3,1.2c1.2,0,2.4-0.5,3.2-1.4
	c0.9-1.2,1.3-2.7,1.2-4.2V11.6H291.1z"/>
<path class="st0" d="M310.4,34.5c-0.8,0.5-1.7,0.8-2.6,1c-1.1,0.2-2.1,0.3-3.2,0.3c-3.2,0-5.5-0.7-7.2-2.2s-2.5-3.9-2.5-6.9V6.2h8.4
	v6.3h5.4v6.2h-5.4v7.9c0,0.7,0.2,1.5,0.6,2.1c0.5,0.4,1.1,0.7,1.8,0.7c0.9,0,1.8-0.3,2.6-0.8L310.4,34.5z"/>
<path class="st0" d="M313.3,7.7c-0.8-0.8-1.4-1.9-1.4-3c0-1.2,0.4-2.4,1.3-3.3c1-1,2.4-1.5,3.8-1.4c1.3-0.1,2.7,0.3,3.7,1.2
	c0.9,0.8,1.4,1.9,1.4,3.1c0.1,1.3-0.4,2.5-1.4,3.3c-1,0.9-2.3,1.4-3.7,1.3C315.7,8.9,314.4,8.5,313.3,7.7z M312.8,11.6h8.4v23.8
	h-8.4V11.6z"/>
<path class="st0" d="M330.2,34.3c-2-1-3.6-2.5-4.8-4.4c-1.2-1.9-1.8-4.1-1.8-6.4c0-2.3,0.6-4.5,1.8-6.4c1.1-1.9,2.8-3.4,4.8-4.4
	c2.2-1,4.5-1.5,6.9-1.5c2.4,0,4.8,0.5,7,1.5c2,1,3.6,2.5,4.8,4.4c1.1,1.9,1.7,4.2,1.7,6.4c0,2.2-0.6,4.5-1.7,6.4
	c-1.2,1.8-2.9,3.3-4.8,4.4C339.7,36.3,334.6,36.3,330.2,34.3z M340.7,27.7c1-1.1,1.5-2.7,1.4-4.2c0.1-1.5-0.4-3.1-1.4-4.2
	c-0.9-1-2.2-1.6-3.6-1.5c-1.4,0-2.7,0.5-3.6,1.5c-1,1.2-1.5,2.7-1.4,4.2c-0.1,1.5,0.4,3,1.4,4.2c0.9,1,2.2,1.5,3.6,1.5
	C338.5,29.3,339.8,28.7,340.7,27.7z"/>
<path class="st0" d="M375.7,13.8c1.8,1.8,2.7,4.4,2.7,8v13.6H370V23.2c0-3.3-1.3-4.9-3.9-4.9c-1.3-0.1-2.6,0.4-3.4,1.4
	c-1,1.2-1.4,2.7-1.3,4.2v11.5H353V11.6h8v2.6c0.9-1,2.1-1.8,3.3-2.3c1.3-0.5,2.8-0.7,4.2-0.7C371.1,11.1,373.7,12,375.7,13.8z"/>
<path class="st0" d="M139.2,54.1V41.9h5.4c1-0.1,2.1,0.2,2.9,0.9c0.7,0.6,1,1.5,1,2.4c0,0.8-0.2,1.6-0.7,2.2c-0.6,0.6-1.3,1-2.1,1.1
	l3.9,5.6h-1.7l-3.8-5.4h-3.5v5.4H139.2z M140.6,47.4h4c0.7,0.1,1.3-0.2,1.8-0.6c0.5-0.3,0.8-0.9,0.7-1.5c0-0.6-0.2-1.2-0.7-1.6
	c-0.5-0.4-1.2-0.6-1.8-0.5h-4V47.4z"/>
<path class="st0" d="M154.9,54.3c-1.2,0-2.4-0.4-3.3-1.3c-0.9-0.8-1.3-1.9-1.3-3.1c0-1.2,0.4-2.3,1.2-3.2c0.8-0.9,1.9-1.4,3.1-1.3
	c0.6,0,1.2,0.1,1.8,0.4c0.5,0.3,0.9,0.6,1.2,1.1c0.3,0.4,0.6,0.9,0.7,1.4c0.2,0.5,0.3,1,0.3,1.5v0.4h-6.9c0.1,0.8,0.5,1.6,1.1,2.1
	c0.7,0.5,1.5,0.8,2.4,0.7c0.9,0,1.9-0.2,2.7-0.7v1.2C157,54.1,156,54.4,154.9,54.3z M151.7,49.1h5.5c-0.1-0.6-0.3-1.2-0.7-1.7
	c-0.5-0.5-1.2-0.8-2-0.8c-0.7,0-1.5,0.3-2,0.8C152,47.9,151.8,48.5,151.7,49.1L151.7,49.1z"/>
<path class="st0" d="M163.5,54.1l-3.9-8.5h1.6l3,6.7l3-6.7h1.4l-3.8,8.5H163.5z"/>
<path class="st0" d="M174.5,54.3c-1.2,0-2.4-0.4-3.3-1.3c-0.9-0.8-1.4-1.9-1.4-3.1c0-1.2,0.4-2.3,1.2-3.2c0.8-0.9,1.9-1.3,3.1-1.3
	c0.6,0,1.2,0.1,1.8,0.4c0.5,0.2,1,0.6,1.3,1.1c0.3,0.4,0.5,0.9,0.7,1.4c0.1,0.5,0.2,1,0.2,1.5v0.4h-6.8c0,0.8,0.4,1.6,1,2.1
	c0.7,0.5,1.6,0.7,2.5,0.7c0.9,0,1.9-0.2,2.7-0.7v1.2C176.6,54.1,175.6,54.4,174.5,54.3z M171.3,49.1h5.4c0-0.6-0.3-1.2-0.7-1.7
	c-0.5-0.5-1.2-0.8-1.9-0.8c-0.7,0-1.5,0.3-2,0.8C171.6,47.8,171.3,48.4,171.3,49.1z"/>
<path class="st0" d="M181.7,54.1h-1.4v-8.5h1.4v1.3c0.4-0.4,0.9-0.8,1.4-1.1c0.6-0.2,1.2-0.4,1.9-0.4c0.9-0.1,1.8,0.3,2.4,0.9
	c0.6,0.7,0.9,1.7,0.8,2.6v5.2h-1.3v-4.9c0-0.5-0.1-0.9-0.3-1.3c-0.1-0.3-0.3-0.6-0.6-0.7l-0.7-0.4h-0.8c-0.6,0-1.1,0.2-1.6,0.5
	c-0.4,0.3-0.9,0.8-1.2,1.2L181.7,54.1z"/>
<path class="st0" d="M197.2,45.6h1.4v8.5h-1.4v-1.3c-0.8,1-2,1.5-3.3,1.5c-0.9,0.1-1.8-0.3-2.4-0.9c-0.6-0.7-0.9-1.7-0.8-2.6v-5.2
	h1.4v4.9c0,1.6,0.7,2.5,2.3,2.5c0.6,0,1.1-0.2,1.6-0.5l1.2-1.2V45.6z"/>
<path class="st0" d="M205.3,54.3c-1.2,0-2.4-0.4-3.3-1.3c-0.9-0.8-1.3-1.9-1.3-3.1c0-1.2,0.4-2.3,1.2-3.2c0.8-0.9,1.9-1.4,3.1-1.3
	c0.6,0,1.2,0.1,1.8,0.4c0.5,0.3,0.9,0.6,1.2,1.1c0.3,0.4,0.5,0.9,0.7,1.4c0.2,0.5,0.2,1,0.2,1.5v0.4h-6.8c0,0.8,0.4,1.6,1.1,2.1
	c0.7,0.5,1.5,0.8,2.4,0.7c0.9,0,1.9-0.2,2.7-0.7v1.2C207.4,54.1,206.4,54.4,205.3,54.3z M202.1,49.1h5.4c0-0.6-0.2-1.3-0.7-1.7
	c-0.5-0.6-1.2-0.8-1.9-0.8c-0.7,0-1.5,0.3-2,0.8C202.4,47.8,202.1,48.4,202.1,49.1z"/>
<path class="st0" d="M144.9,70.6c-1.7,0-3.3-0.6-4.5-1.8c-1.1-1.2-1.7-2.8-1.7-4.5c-0.1-3.4,2.7-6.2,6.1-6.3c0.1,0,0.1,0,0.2,0
	c1.3,0,2.7,0.4,3.8,1.1v1.4c-1.1-0.8-2.4-1.2-3.8-1.2c-1.3,0-2.6,0.5-3.5,1.4c-0.9,1-1.4,2.3-1.4,3.6c0,1.3,0.5,2.6,1.4,3.6
	c0.9,0.9,2.1,1.4,3.4,1.4c1.3,0.1,2.5-0.3,3.4-1.2v-4.7h1.4v5.2c-0.5,0.6-1.2,1.1-2,1.4C146.8,70.4,145.9,70.6,144.9,70.6z"/>
<path class="st0" d="M152.7,70.4v-8.5h1.4v1.6c0.4-0.5,0.8-1,1.4-1.3c0.6-0.3,1.2-0.5,1.9-0.5v1.4c-0.7,0-1.3,0.2-1.9,0.6
	c-0.6,0.3-1.1,0.8-1.4,1.4v5.3H152.7z"/>
<path class="st0" d="M159.7,63c0.9-0.8,2.1-1.3,3.3-1.3c1.2,0,2.4,0.4,3.3,1.3c0.9,0.8,1.3,2,1.3,3.2c0,2.4-2,4.4-4.4,4.4
	c-0.1,0-0.1,0-0.2,0c-1.2,0-2.4-0.4-3.3-1.3c-0.8-0.8-1.3-1.9-1.3-3.1C158.4,65,158.9,63.9,159.7,63z M160.7,68.4
	c0.6,0.7,1.4,1,2.3,1c0.9,0,1.7-0.3,2.3-1c0.6-0.6,0.9-1.4,0.9-2.2c0.1-1.7-1.3-3.1-3-3.2c-0.1,0-0.1,0-0.2,0
	c-0.9,0-1.7,0.3-2.3,0.9c-0.6,0.6-0.9,1.4-0.9,2.3C159.8,67,160.1,67.8,160.7,68.4z"/>
<path class="st0" d="M171.5,70.4l-3-8.5h1.4l2.3,6.4l2.2-6.4h1.2l2.3,6.4l2.2-6.4h1.4l-3,8.5h-1.2L175,64l-2.3,6.4H171.5z"/>
<path class="st0" d="M186.9,70.6c-0.7,0.1-1.4-0.2-1.9-0.7c-0.4-0.5-0.6-1.2-0.6-1.9v-4.9h-1.9v-1.2h1.9v-2.5h1.4v2.5h2.9v1.2h-2.9
	v4.5c0,0.6,0.1,1.1,0.4,1.3s0.5,0.4,1.1,0.4c0.5,0,0.9-0.1,1.3-0.3v1.2C188.1,70.5,187.5,70.6,186.9,70.6z"/>
<path class="st0" d="M192.2,70.4h-1.4V58.2h1.4v5c0.3-0.4,0.8-0.8,1.3-1c0.6-0.3,1.3-0.5,2-0.5c0.9,0,1.8,0.3,2.4,0.9
	c0.5,0.8,0.8,1.7,0.8,2.6v5.2h-1.4v-4.9c0-0.4-0.1-0.8-0.2-1.2c-0.1-0.3-0.3-0.6-0.6-0.8l-0.7-0.4H195c-0.6,0-1.2,0.2-1.7,0.5
	c-0.4,0.3-0.8,0.7-1.1,1.2V70.4z"/>
<path class="st0" d="M142.8,86.8c-1.6,0.1-3.2-0.4-4.5-1.2V84c0.6,0.4,1.2,0.8,1.9,1.1c0.8,0.3,1.6,0.4,2.5,0.4
	c0.8,0,1.6-0.2,2.3-0.6c0.6-0.3,0.9-0.9,0.9-1.6c0-0.3,0-0.5-0.1-0.8l-0.5-0.5c-0.1-0.2-0.4-0.3-0.7-0.5l-0.9-0.3l-1.1-0.3l-1.6-0.5
	l-1.2-0.6c-0.4-0.2-0.8-0.6-1-1c-0.2-0.4-0.3-0.9-0.3-1.4c0-0.9,0.4-1.8,1.2-2.3c0.9-0.6,2-1,3.1-0.9c1.3,0,2.6,0.3,3.8,1v1.5
	c-1.1-0.8-2.4-1.2-3.8-1.2c-0.7,0-1.5,0.2-2.1,0.6c-0.4,0.3-0.7,0.8-0.7,1.3v0.5l0.2,0.3l0.2,0.3l0.4,0.3l0.4,0.2l0.5,0.2h0.5
	l0.6,0.2l0.6,0.2l1.1,0.4l1.1,0.4l1,0.7c0.2,0.2,0.4,0.6,0.5,0.9c0.2,0.4,0.3,0.8,0.3,1.2c0.1,1-0.4,2-1.3,2.6
	C145.1,86.5,144,86.8,142.8,86.8z"/>
<path class="st0" d="M150.9,90.1h-1.4V78.2h1.4v1.3c1.4-1.8,4-2,5.8-0.6c0.2,0.1,0.3,0.3,0.4,0.4c1.6,1.8,1.6,4.4,0,6.2
	c-1.5,1.7-4.1,1.8-5.8,0.2c-0.1-0.1-0.3-0.3-0.4-0.4V90.1z M150.9,81v2.8c0.2,0.5,0.6,1,1.1,1.3c0.5,0.3,1.2,0.5,1.8,0.5
	c0.8,0,1.6-0.3,2.2-0.9c1.2-1.3,1.2-3.3,0-4.6c-0.6-0.6-1.4-0.9-2.2-0.9c-0.6,0-1.2,0.2-1.7,0.5C151.6,80,151.2,80.5,150.9,81z"/>
<path class="st0" d="M164.6,86.8c-1.2,0-2.5-0.4-3.4-1.2c-0.9-0.8-1.3-2-1.3-3.2c0-1.2,0.4-2.3,1.2-3.2c0.8-0.8,1.9-1.3,3.1-1.2
	c0.6,0,1.2,0.1,1.8,0.4c0.5,0.3,0.9,0.6,1.2,1c0.3,0.5,0.5,1,0.7,1.5c0.2,0.5,0.3,1,0.3,1.5v0.4h-6.9c0.1,0.8,0.5,1.5,1.1,2
	c0.7,0.5,1.5,0.8,2.4,0.8c1,0,2-0.3,2.8-0.8V86C166.7,86.6,165.7,86.9,164.6,86.8z M161.3,81.6h5.5c-0.1-0.6-0.3-1.1-0.7-1.6
	c-0.5-0.5-1.2-0.8-2-0.8c-0.7,0-1.4,0.2-1.9,0.7C161.7,80.4,161.4,81,161.3,81.6z"/>
<path class="st0" d="M174.2,86.8c-1.2,0-2.4-0.4-3.3-1.2c-1.7-1.8-1.7-4.6,0-6.4c0.9-0.8,2.1-1.2,3.3-1.2c0.9,0,1.7,0.2,2.5,0.6v1.2
	c-0.7-0.4-1.5-0.6-2.3-0.6c-0.9,0-1.7,0.3-2.4,0.9c-1.2,1.3-1.2,3.3,0,4.6c0.7,0.6,1.5,0.9,2.4,0.9c0.9,0,1.8-0.2,2.5-0.7v1.2
	C176.1,86.6,175.1,86.8,174.2,86.8z"/>
<path class="st0" d="M179.2,76c-0.2-0.2-0.3-0.4-0.3-0.7c0-0.3,0.1-0.5,0.3-0.7l0.7-0.2l0.7,0.2c0.1,0.2,0.2,0.5,0.2,0.7
	c0,0.2-0.1,0.5-0.2,0.7C180.2,76.4,179.6,76.4,179.2,76z M179.2,86.6v-8.4h1.4v8.4L179.2,86.6z"/>
<path class="st0" d="M185.9,86.8c-0.8,0-1.6-0.2-2.3-0.7c-0.6-0.5-0.9-1.3-0.9-2.1c0-0.8,0.3-1.6,1-2c0.7-0.5,1.5-0.8,2.4-0.8
	c1.1,0,2.1,0.3,3,0.8v-0.7c0-1.4-0.9-2.1-2.7-2.1c-1,0-2,0.3-2.8,0.8v-1.3c1-0.5,2-0.7,3.1-0.7c1-0.1,1.9,0.2,2.7,0.8
	c0.7,0.5,1.1,1.4,1.1,2.3v3.4c0,0.7,0.3,1.1,0.8,1.1l0.5-0.2v1.1l-0.9,0.2c-0.8,0.1-1.5-0.4-1.6-1.2c0,0,0-0.1,0-0.1
	C188.4,86.4,187.2,86.9,185.9,86.8z M186.3,85.6c0.6,0,1.1-0.1,1.6-0.4c0.5-0.2,0.9-0.5,1.2-0.9v-1.2c-0.8-0.5-1.7-0.8-2.6-0.8
	c-0.6,0-1.3,0.1-1.8,0.5c-0.7,0.5-0.8,1.4-0.3,2.1c0.1,0.1,0.2,0.2,0.3,0.3C185.2,85.5,185.7,85.7,186.3,85.6z"/>
<path class="st0" d="M195.5,86.8c-0.5,0-1.1-0.1-1.5-0.4c-0.4-0.5-0.5-1.1-0.5-1.7V74.4h1.4v10c0,0.8,0.3,1.2,1,1.2l0.8-0.2v1.2
	C196.3,86.8,195.9,86.8,195.5,86.8z"/>
<path class="st0" d="M198.8,76c-0.1-0.2-0.2-0.5-0.2-0.7c0-0.2,0.1-0.5,0.2-0.7l0.7-0.2l0.7,0.2c0.2,0.2,0.2,0.4,0.2,0.7
	c0,0.3,0,0.5-0.2,0.7C199.8,76.4,199.2,76.4,198.8,76z M198.8,86.6v-8.4h1.4v8.4L198.8,86.6z"/>
<path class="st0" d="M205.8,86.8c-0.7,0-1.4,0-2.1-0.2l-1.4-0.6v-1.4l1.4,0.7c0.6,0.2,1.3,0.3,2,0.3c0.6,0,1.2-0.1,1.7-0.3
	c0.4-0.2,0.6-0.6,0.6-1c0-0.1-0.1-0.2-0.1-0.3l-0.2-0.3l-0.3-0.2l-0.4-0.2h-1.1l-0.5-0.2c-0.8-0.1-1.6-0.4-2.3-0.9
	c-0.5-0.4-0.7-1.1-0.7-1.7c0-0.7,0.3-1.3,0.9-1.7c0.8-0.4,1.7-0.6,2.6-0.6c1-0.1,2.1,0.2,3,0.7v1.4c-0.9-0.6-1.9-0.9-3-0.9
	c-1.4,0-2.1,0.4-2.1,1.2c0,0.4,0.4,0.8,1.1,1l1.4,0.4c0.8,0.1,1.6,0.4,2.3,0.9c0.5,0.4,0.8,1,0.8,1.7c0,0.7-0.4,1.4-1,1.8
	C207.6,86.7,206.7,86.9,205.8,86.8z"/>
<path class="st0" d="M214.6,86.8c-0.7,0.1-1.3-0.2-1.8-0.7c-0.4-0.5-0.7-1.1-0.6-1.8v-4.9h-1.9v-1.2h1.9v-2.6h1.4v2.6h2.9v1.2h-2.9
	v4.5c0,0.5,0.1,0.9,0.3,1.3c0.3,0.3,0.7,0.4,1.1,0.4c0.5,0,1-0.1,1.4-0.4v1.3C215.8,86.7,215.2,86.8,214.6,86.8z"/>
<path class="st0" d="M221.5,86.8c-0.7,0-1.3,0-2-0.2L218,86v-1.4l1.5,0.7c0.6,0.2,1.3,0.3,2,0.3c0.5,0,1.1-0.1,1.6-0.3
	c0.4-0.2,0.6-0.6,0.6-1V84l-0.3-0.3l-0.2-0.2l-0.5-0.2h-1l-0.6-0.2c-0.8-0.1-1.5-0.4-2.2-0.9c-0.5-0.4-0.8-1.1-0.7-1.7
	c0-0.7,0.3-1.3,0.9-1.7c0.8-0.4,1.6-0.7,2.5-0.6c1.1-0.1,2.2,0.2,3.1,0.7v1.4c-0.9-0.6-1.9-0.9-3-0.9c-1.4,0-2.1,0.4-2.1,1.2
	c0,0.4,0.3,0.8,1,1l1.5,0.4c0.8,0.1,1.5,0.4,2.2,0.9c0.6,0.4,0.9,1,0.8,1.7c0,0.7-0.4,1.4-1,1.8C223.3,86.8,222.4,86.9,221.5,86.8z"
	/>
<linearGradient id="SVGID_1_" gradientUnits="userSpaceOnUse" x1="-0.3234" y1="46.7379" x2="129.1239" y2="46.7379" gradientTransform="matrix(1 0 0 -1 0 95.6378)">
	<stop  offset="0" style="stop-color:#E94C26"/>
	<stop  offset="0.19" style="stop-color:#E94530"/>
	<stop  offset="0.51" style="stop-color:#E7314B"/>
	<stop  offset="0.93" style="stop-color:#E51176"/>
	<stop  offset="1" style="stop-color:#E50B7E"/>
</linearGradient>
<path class="st1" d="M18.3,69.5V20.7H93C92.2,10.3,83.5,2.1,73,2H19.8C8.7,2-0.3,11-0.3,22.1c0,0,0,0,0,0v53.6
	c0,10.5,8.1,19.3,18.6,20h0.1l53-53.1l52.8,52.8c6.9-7.9,6.5-19.9-0.9-27.3L85.6,30.4c-7.9-7.8-20.5-7.8-28.4,0L19.3,68.3L18.3,69.5
	"/>
</svg>
